<svg viewBox="0 0 237 159" fill="none" xmlns="http://www.w3.org/2000/svg">
  <rect width="237" height="158" transform="translate(0 0.771973)" fill="#1A1A1A"/>
  <path d="M60.0588 92.48C58.6081 92.48 57.2268 92.224 55.9148 91.712C54.6028 91.1893 53.4401 90.4213 52.4268 89.408C51.4241 88.3947 50.6294 87.1413 50.0428 85.648C49.4668 84.1547 49.1788 82.432 49.1788 80.48C49.1788 77.9307 49.6641 75.7653 50.6348 73.984C51.6161 72.192 52.9281 70.8267 54.5708 69.888C56.2241 68.9493 58.0534 68.48 60.0588 68.48C63.0241 68.48 65.3548 69.168 67.0508 70.544C68.7468 71.92 69.8828 73.8667 70.4588 76.384L66.0108 77.024C65.5948 75.68 64.9121 74.608 63.9628 73.808C63.0241 72.9973 61.8188 72.5867 60.3468 72.576C58.8854 72.5547 57.6694 72.8693 56.6988 73.52C55.7281 74.1707 54.9974 75.0933 54.5068 76.288C54.0268 77.4827 53.7868 78.88 53.7868 80.48C53.7868 82.08 54.0268 83.4667 54.5068 84.64C54.9974 85.8133 55.7281 86.7253 56.6988 87.376C57.6694 88.0267 58.8854 88.3627 60.3468 88.384C61.3388 88.4053 62.2348 88.2347 63.0348 87.872C63.8454 87.5093 64.5281 86.9387 65.0828 86.16C65.6374 85.3813 66.0321 84.384 66.2668 83.168H62.6188V79.808H70.9068C70.9281 79.9467 70.9441 80.192 70.9548 80.544C70.9654 80.896 70.9708 81.0987 70.9708 81.152C70.9708 83.36 70.5228 85.3173 69.6268 87.024C68.7308 88.7307 67.4668 90.0693 65.8348 91.04C64.2028 92 62.2774 92.48 60.0588 92.48ZM74.4975 72.32V68.48H78.8495V72.32H74.4975ZM74.4975 92V74.72H78.8495V92H74.4975ZM85.0863 92V74.784C85.0863 74.3467 85.0969 73.8507 85.1183 73.296C85.1396 72.7413 85.2249 72.1813 85.3743 71.616C85.5343 71.0507 85.8223 70.5387 86.2383 70.08C86.7716 69.4827 87.3476 69.0773 87.9663 68.864C88.5956 68.64 89.2036 68.5227 89.7903 68.512C90.3769 68.4907 90.8783 68.48 91.2943 68.48H93.4383V72H91.4543C90.7716 72 90.2649 72.176 89.9343 72.528C89.6036 72.8693 89.4383 73.28 89.4383 73.76V92H85.0863ZM82.3663 78.08V74.72H93.4383V78.08H82.3663ZM106.358 92C105.163 92.224 103.99 92.32 102.838 92.288C101.697 92.2667 100.673 92.0693 99.766 91.696C98.87 91.312 98.1873 90.6987 97.718 89.856C97.2913 89.0667 97.0673 88.2667 97.046 87.456C97.0247 86.6347 97.014 85.7067 97.014 84.672V69.92H101.366V84.416C101.366 85.088 101.371 85.696 101.382 86.24C101.403 86.7733 101.515 87.2 101.718 87.52C102.102 88.128 102.715 88.4587 103.558 88.512C104.401 88.5653 105.334 88.5227 106.358 88.384V92ZM94.07 78.08V74.72H106.358V78.08H94.07ZM126.503 92.48C124.199 92.48 122.21 91.9787 120.535 90.976C118.871 89.9733 117.586 88.5707 116.679 86.768C115.783 84.9653 115.335 82.8693 115.335 80.48C115.335 78.0907 115.783 75.9947 116.679 74.192C117.586 72.3893 118.871 70.9867 120.535 69.984C122.21 68.9813 124.199 68.48 126.503 68.48C129.148 68.48 131.367 69.136 133.159 70.448C134.962 71.76 136.231 73.536 136.967 75.776L132.583 76.992C132.156 75.5947 131.436 74.512 130.423 73.744C129.41 72.9653 128.103 72.576 126.503 72.576C125.042 72.576 123.82 72.9013 122.839 73.552C121.868 74.2027 121.138 75.12 120.647 76.304C120.156 77.488 119.911 78.88 119.911 80.48C119.911 82.08 120.156 83.472 120.647 84.656C121.138 85.84 121.868 86.7573 122.839 87.408C123.82 88.0587 125.042 88.384 126.503 88.384C128.103 88.384 129.41 87.9947 130.423 87.216C131.436 86.4373 132.156 85.3547 132.583 83.968L136.967 85.184C136.231 87.424 134.962 89.2 133.159 90.512C131.367 91.824 129.148 92.48 126.503 92.48ZM145.29 92.48C144.053 92.48 143.002 92.2453 142.138 91.776C141.285 91.296 140.634 90.6613 140.186 89.872C139.749 89.072 139.53 88.192 139.53 87.232C139.53 86.432 139.653 85.7013 139.898 85.04C140.143 84.3787 140.538 83.7973 141.082 83.296C141.637 82.784 142.378 82.3573 143.306 82.016C143.946 81.7813 144.709 81.5733 145.594 81.392C146.479 81.2107 147.482 81.04 148.602 80.88C149.722 80.7093 150.954 80.5227 152.298 80.32L150.73 81.184C150.73 80.16 150.485 79.408 149.994 78.928C149.503 78.448 148.682 78.208 147.53 78.208C146.89 78.208 146.223 78.3627 145.53 78.672C144.837 78.9813 144.351 79.5307 144.074 80.32L140.138 79.072C140.575 77.6427 141.397 76.48 142.602 75.584C143.807 74.688 145.45 74.24 147.53 74.24C149.055 74.24 150.41 74.4747 151.594 74.944C152.778 75.4133 153.674 76.224 154.282 77.376C154.623 78.016 154.826 78.656 154.89 79.296C154.954 79.936 154.986 80.6507 154.986 81.44V92H151.178V88.448L151.722 89.184C150.879 90.3467 149.967 91.1893 148.986 91.712C148.015 92.224 146.783 92.48 145.29 92.48ZM146.218 89.056C147.018 89.056 147.69 88.9173 148.234 88.64C148.789 88.352 149.226 88.0267 149.546 87.664C149.877 87.3013 150.101 86.9973 150.218 86.752C150.442 86.2827 150.57 85.7387 150.602 85.12C150.645 84.4907 150.666 83.968 150.666 83.552L151.946 83.872C150.655 84.0853 149.61 84.2667 148.81 84.416C148.01 84.5547 147.365 84.6827 146.874 84.8C146.383 84.9173 145.951 85.0453 145.578 85.184C145.151 85.3547 144.805 85.5413 144.538 85.744C144.282 85.936 144.09 86.1493 143.962 86.384C143.845 86.6187 143.786 86.88 143.786 87.168C143.786 87.5627 143.882 87.904 144.074 88.192C144.277 88.4693 144.559 88.6827 144.922 88.832C145.285 88.9813 145.717 89.056 146.218 89.056ZM159.146 92V74.72H162.986V78.944L162.57 78.4C162.794 77.8027 163.093 77.2587 163.466 76.768C163.84 76.2773 164.298 75.872 164.842 75.552C165.258 75.296 165.712 75.0987 166.202 74.96C166.693 74.8107 167.2 74.72 167.722 74.688C168.245 74.6453 168.768 74.656 169.29 74.72V78.784C168.81 78.6347 168.25 78.5867 167.61 78.64C166.981 78.6827 166.41 78.8267 165.898 79.072C165.386 79.3067 164.954 79.6213 164.602 80.016C164.25 80.4 163.984 80.8587 163.802 81.392C163.621 81.9147 163.53 82.5067 163.53 83.168V92H159.146ZM179.029 92.48C177.44 92.48 176.048 92.08 174.853 91.28C173.659 90.48 172.725 89.392 172.053 88.016C171.392 86.64 171.061 85.088 171.061 83.36C171.061 81.6 171.397 80.0373 172.069 78.672C172.752 77.296 173.707 76.2133 174.933 75.424C176.16 74.6347 177.6 74.24 179.253 74.24C180.896 74.24 182.277 74.64 183.397 75.44C184.517 76.24 185.365 77.328 185.941 78.704C186.517 80.08 186.805 81.632 186.805 83.36C186.805 85.088 186.512 86.64 185.925 88.016C185.349 89.392 184.485 90.48 183.333 91.28C182.181 92.08 180.747 92.48 179.029 92.48ZM179.733 88.608C180.704 88.608 181.477 88.3893 182.053 87.952C182.64 87.5147 183.061 86.9013 183.317 86.112C183.573 85.3227 183.701 84.4053 183.701 83.36C183.701 82.3147 183.573 81.3973 183.317 80.608C183.061 79.8187 182.651 79.2053 182.085 78.768C181.531 78.3307 180.8 78.112 179.893 78.112C178.923 78.112 178.123 78.352 177.493 78.832C176.875 79.3013 176.416 79.936 176.117 80.736C175.819 81.5253 175.669 82.4 175.669 83.36C175.669 84.3307 175.813 85.216 176.101 86.016C176.389 86.8053 176.832 87.4347 177.429 87.904C178.027 88.3733 178.795 88.608 179.733 88.608ZM183.701 92V80.16H183.157V68.96H187.541V92H183.701Z" fill="white"/>
</svg>
