<svg viewBox="0 0 237 160" fill="none" xmlns="http://www.w3.org/2000/svg">
  <g clip-path="url(#clip0_4389_70652)">
    <rect width="236.973" height="158.051" transform="translate(0 0.998291)" fill="#FAFAFA"/>
    <rect width="236.973" height="158.051" transform="translate(0 0.998291)" fill="url(#paint0_radial_4389_70652)"/>
    <rect width="236.973" height="158.051" transform="translate(0 0.998291)" fill="url(#paint1_radial_4389_70652)"/>
    <rect width="236.973" height="158.051" transform="translate(0 0.998291)" fill="url(#paint2_radial_4389_70652)"/>
    <ellipse cx="-1.88917" cy="56.5256" rx="12.4858" ry="12.4858" fill="#88F6FD"/>
    <ellipse cx="-1.88917" cy="106.471" rx="12.4858" ry="12.4858" fill="#DFFD88"/>
    <path d="M82.6879 44.9559V45.8072H83.5392V44.9559H82.6879ZM82.6879 37.1647H83.5392V36.3134H82.6879V37.1647ZM49.6709 37.1647V36.3134H48.8196V37.1647H49.6709ZM49.6709 44.9559H48.8196V45.8072H49.6709V44.9559ZM61.6573 44.9559H62.5086V44.1046H61.6573V44.9559ZM61.6573 76.2839H60.806V77.1352H61.6573V76.2839ZM70.756 76.2839V77.1352H71.6073V76.2839H70.756ZM70.756 44.9559V44.1046H69.9047V44.9559H70.756ZM83.5392 44.9559V37.1647H81.8366V44.9559H83.5392ZM82.6879 36.3134H49.6709V38.0161H82.6879V36.3134ZM48.8196 37.1647V44.9559H50.5222V37.1647H48.8196ZM49.6709 45.8072H61.6573V44.1046H49.6709V45.8072ZM60.806 44.9559V76.2839H62.5086V44.9559H60.806ZM61.6573 77.1352H70.756V75.4326H61.6573V77.1352ZM71.6073 76.2839V44.9559H69.9047V76.2839H71.6073ZM70.756 45.8072H82.6879V44.1046H70.756V45.8072ZM86.0582 76.2839H85.2069V77.1352H86.0582V76.2839ZM94.7756 76.2839V77.1352H95.6269V76.2839H94.7756ZM103.547 76.2839H102.696V77.1352H103.547V76.2839ZM112.265 76.2839V77.1352H113.116V76.2839H112.265ZM94.7756 50.4587H93.9243V52.7686L95.4233 51.0112L94.7756 50.4587ZM94.7756 37.1647H95.6269V36.3134H94.7756V37.1647ZM86.0582 37.1647V36.3134H85.2069V37.1647H86.0582ZM86.0582 77.1352H94.7756V75.4326H86.0582V77.1352ZM95.6269 76.2839V59.8844H93.9243V76.2839H95.6269ZM95.6269 59.8844C95.6269 58.4043 96.1338 57.3683 96.8342 56.7002C97.5453 56.0219 98.5128 55.6687 99.5157 55.6687V53.9661C98.1213 53.9661 96.7187 54.4574 95.6591 55.4681C94.5888 56.4891 93.9243 57.9865 93.9243 59.8844H95.6269ZM99.5157 55.6687C100.691 55.6687 101.431 56.0937 101.907 56.744C102.414 57.4354 102.696 58.4847 102.696 59.8299H104.399C104.399 58.2875 104.082 56.8305 103.281 55.7376C102.45 54.6035 101.174 53.9661 99.5157 53.9661V55.6687ZM102.696 59.8299V76.2839H104.399V59.8299H102.696ZM103.547 77.1352H112.265V75.4326H103.547V77.1352ZM113.116 76.2839V57.3237H111.414V76.2839H113.116ZM113.116 57.3237C113.116 54.0253 112.139 51.2155 110.303 49.2215C108.46 47.2198 105.824 46.1205 102.676 46.1205V47.8231C105.411 47.8231 107.57 48.767 109.051 50.3748C110.538 51.9902 111.414 54.3564 111.414 57.3237H113.116ZM102.676 46.1205C98.7529 46.1205 95.854 47.8826 94.1279 49.9063L95.4233 51.0112C96.8572 49.33 99.2977 47.8231 102.676 47.8231V46.1205ZM95.6269 50.4587V37.1647H93.9243V50.4587H95.6269ZM94.7756 36.3134H86.0582V38.0161H94.7756V36.3134ZM85.2069 37.1647V76.2839H86.9095V37.1647H85.2069ZM117.278 57.0512L116.428 57.0017L116.375 57.9025H117.278V57.0512ZM125.723 57.0512V57.9025H126.508L126.571 57.12L125.723 57.0512ZM133.677 57.923L133.82 58.7623L134.529 58.6421V57.923H133.677ZM127.248 59.0127L127.374 59.8546L127.382 59.8534L127.39 59.852L127.248 59.0127ZM134.168 74.1046H135.019V72.1343L133.584 73.4847L134.168 74.1046ZM134.331 76.2839L133.49 76.4134L133.601 77.1352H134.331V76.2839ZM142.613 76.2839V77.1352H143.601L143.454 76.1577L142.613 76.2839ZM128.61 64.461L128.466 63.622L128.458 63.6233L128.451 63.6247L128.61 64.461ZM133.677 63.5893H134.529V62.579L133.533 62.7503L133.677 63.5893ZM143.028 69.1466V55.9071H141.325V69.1466H143.028ZM143.028 55.9071C143.028 52.7466 141.802 50.247 139.514 48.5671C137.264 46.915 134.077 46.1205 130.245 46.1205V47.8231C133.877 47.8231 136.656 48.5813 138.506 49.9395C140.318 51.2697 141.325 53.2378 141.325 55.9071H143.028ZM130.245 46.1205C126.362 46.1205 123.017 47.0339 120.572 48.8804C118.104 50.7442 116.632 53.5019 116.428 57.0017L118.128 57.1008C118.305 54.0626 119.557 51.7805 121.598 50.2391C123.661 48.6804 126.609 47.8231 130.245 47.8231V46.1205ZM117.278 57.9025H125.723V56.1999H117.278V57.9025ZM126.571 57.12C126.64 56.2688 126.913 55.7256 127.343 55.3753C127.793 55.009 128.55 54.7425 129.809 54.7425V53.0399C128.344 53.0399 127.139 53.3455 126.268 54.0552C125.377 54.781 124.969 55.8178 124.874 56.9824L126.571 57.12ZM129.809 54.7425C131.013 54.7425 131.762 54.9652 132.194 55.2882C132.577 55.5744 132.826 56.0262 132.826 56.8333H134.529C134.529 55.6246 134.124 54.6052 133.213 53.9244C132.351 53.2803 131.165 53.0399 129.809 53.0399V54.7425ZM132.826 56.8333V57.923H134.529V56.8333H132.826ZM133.535 57.0836L127.106 58.1733L127.39 59.852L133.82 58.7623L133.535 57.0836ZM127.123 58.1707C123.966 58.6415 121.039 59.4993 118.886 61.0774C116.684 62.6913 115.337 65.0277 115.337 68.2749H117.039C117.039 65.5833 118.117 63.7517 119.892 62.4507C121.716 61.1139 124.32 60.3101 127.374 59.8546L127.123 58.1707ZM115.337 68.2749C115.337 71.0533 116.464 73.4279 118.397 75.0963C120.32 76.7566 122.994 77.6801 126.05 77.6801V75.9775C123.33 75.9775 121.073 75.1574 119.509 73.8075C117.955 72.4658 117.039 70.5634 117.039 68.2749H115.337ZM126.05 77.6801C129.745 77.6801 132.7 76.6545 134.751 74.7245L133.584 73.4847C131.93 75.0416 129.437 75.9775 126.05 75.9775V77.6801ZM133.316 74.1046C133.316 74.9096 133.374 75.6611 133.49 76.4134L135.172 76.1545C135.07 75.4902 135.019 74.8252 135.019 74.1046H133.316ZM134.331 77.1352H142.613V75.4326H134.331V77.1352ZM143.454 76.1577C143.136 74.0377 143.028 71.6331 143.028 69.1466H141.325C141.325 71.6726 141.435 74.1715 141.771 76.4102L143.454 76.1577ZM132.826 65.9321C132.826 67.1026 132.299 67.9727 131.457 68.578C130.591 69.201 129.373 69.5484 128.065 69.5484V71.251C129.646 71.251 131.234 70.8357 132.451 69.9604C133.693 69.0674 134.529 67.7036 134.529 65.9321H132.826ZM128.065 69.5484C127.152 69.5484 126.517 69.3308 126.128 69.0237C125.766 68.7374 125.539 68.3128 125.539 67.6755H123.836C123.836 68.7817 124.263 69.7193 125.072 70.3592C125.855 70.9783 126.909 71.251 128.065 71.251V69.5484ZM125.539 67.6755C125.539 66.9175 125.813 66.482 126.282 66.1508C126.817 65.7726 127.642 65.512 128.77 65.2973L128.451 63.6247C127.29 63.8459 126.153 64.1573 125.3 64.7598C124.38 65.4094 123.836 66.3632 123.836 67.6755H125.539ZM128.755 65.3L133.822 64.4282L133.533 62.7503L128.466 63.622L128.755 65.3ZM132.826 63.5893V65.9321H134.529V63.5893H132.826ZM147.725 76.2839H146.873V77.1352H147.725V76.2839ZM156.442 76.2839V77.1352H157.293V76.2839H156.442ZM165.214 76.2839H164.363V77.1352H165.214V76.2839ZM173.931 76.2839V77.1352H174.783V76.2839H173.931ZM156.442 50.4587H155.591V52.7686L157.09 51.0112L156.442 50.4587ZM156.442 47.5711H157.293V46.7198H156.442V47.5711ZM147.725 47.5711V46.7198H146.873V47.5711H147.725ZM147.725 77.1352H156.442V75.4326H147.725V77.1352ZM157.293 76.2839V59.8844H155.591V76.2839H157.293ZM157.293 59.8844C157.293 58.4043 157.8 57.3683 158.501 56.7002C159.212 56.0219 160.179 55.6687 161.182 55.6687V53.9661C159.788 53.9661 158.385 54.4574 157.326 55.4681C156.255 56.4891 155.591 57.9865 155.591 59.8844H157.293ZM161.182 55.6687C162.357 55.6687 163.097 56.0937 163.574 56.744C164.08 57.4354 164.363 58.4847 164.363 59.8299H166.065C166.065 58.2875 165.748 56.8305 164.947 55.7376C164.116 54.6035 162.84 53.9661 161.182 53.9661V55.6687ZM164.363 59.8299V76.2839H166.065V59.8299H164.363ZM165.214 77.1352H173.931V75.4326H165.214V77.1352ZM174.783 76.2839V57.3237H173.08V76.2839H174.783ZM174.783 57.3237C174.783 54.0253 173.806 51.2155 171.97 49.2215C170.126 47.2198 167.491 46.1205 164.342 46.1205V47.8231C167.078 47.8231 169.237 48.767 170.717 50.3748C172.204 51.9902 173.08 54.3564 173.08 57.3237H174.783ZM164.342 46.1205C160.419 46.1205 157.52 47.8826 155.794 49.9063L157.09 51.0112C158.524 49.33 160.964 47.8231 164.342 47.8231V46.1205ZM157.293 50.4587V47.5711H155.591V50.4587H157.293ZM156.442 46.7198H147.725V48.4224H156.442V46.7198ZM146.873 47.5711V76.2839H148.576V47.5711H146.873ZM188.206 37.1647H189.058V36.3134H188.206V37.1647ZM179.489 37.1647V36.3134H178.638V37.1647H179.489ZM179.489 76.2839H178.638V77.1352H179.489V76.2839ZM188.206 76.2839V77.1352H189.058V76.2839H188.206ZM188.206 67.948L187.589 67.3619L187.355 67.6083V67.948H188.206ZM191.257 64.7334L191.98 64.2835L191.398 63.3487L190.64 64.1474L191.257 64.7334ZM198.449 76.2839L197.727 76.7339L197.976 77.1352H198.449V76.2839ZM208.42 76.2839V77.1352H209.949L209.143 75.8353L208.42 76.2839ZM197.305 58.3588L196.689 57.771L196.234 58.2476L196.582 58.8075L197.305 58.3588ZM207.603 47.5711L208.218 48.1589L209.592 46.7198H207.603V47.5711ZM197.36 47.5711V46.7198H196.977L196.723 47.0055L197.36 47.5711ZM188.206 57.8685H187.355V60.1076L188.843 58.4341L188.206 57.8685ZM188.206 36.3134H179.489V38.0161H188.206V36.3134ZM178.638 37.1647V76.2839H180.34V37.1647H178.638ZM179.489 77.1352H188.206V75.4326H179.489V77.1352ZM189.058 76.2839V67.948H187.355V76.2839H189.058ZM188.824 68.534L191.875 65.3195L190.64 64.1474L187.589 67.3619L188.824 68.534ZM190.535 65.1834L197.727 76.7339L199.172 75.834L191.98 64.2835L190.535 65.1834ZM198.449 77.1352H208.42V75.4326H198.449V77.1352ZM209.143 75.8353L198.029 57.9102L196.582 58.8075L207.696 76.7326L209.143 75.8353ZM197.921 58.9467L208.218 48.1589L206.987 46.9833L196.689 57.771L197.921 58.9467ZM207.603 46.7198H197.36V48.4224H207.603V46.7198ZM196.723 47.0055L187.57 57.3029L188.843 58.4341L197.996 48.1367L196.723 47.0055ZM189.058 57.8685V37.1647H187.355V57.8685H189.058ZM119.415 102.311L118.682 102.744L119.415 103.987L120.149 102.744L119.415 102.311ZM110.48 87.1647L111.213 86.7322L110.966 86.3134H110.48V87.1647ZM100.619 87.1647V86.3134H99.112L99.8893 87.604L100.619 87.1647ZM114.73 110.593H115.581V110.356L115.459 110.153L114.73 110.593ZM114.73 126.284H113.878V127.135H114.73V126.284ZM123.829 126.284V127.135H124.68V126.284H123.829ZM123.829 110.593L123.099 110.153L122.977 110.356V110.593H123.829ZM137.94 87.1647L138.669 87.604L139.446 86.3134H137.94V87.1647ZM128.351 87.1647V86.3134H127.864L127.617 86.7322L128.351 87.1647ZM120.149 101.879L111.213 86.7322L109.747 87.5973L118.682 102.744L120.149 101.879ZM110.48 86.3134H100.619V88.0161H110.48V86.3134ZM99.8893 87.604L114.001 111.032L115.459 110.153L101.348 86.7255L99.8893 87.604ZM113.878 110.593V126.284H115.581V110.593H113.878ZM114.73 127.135H123.829V125.433H114.73V127.135ZM124.68 126.284V110.593H122.977V126.284H124.68ZM124.558 111.032L138.669 87.604L137.211 86.7255L123.099 110.153L124.558 111.032ZM137.94 86.3134H128.351V88.0161H137.94V86.3134ZM127.617 86.7322L118.682 101.879L120.149 102.744L129.084 87.5973L127.617 86.7322ZM162.302 111.955C162.302 107.295 160.751 103.328 158.038 100.521C155.323 97.7119 151.5 96.1205 147.067 96.1205V97.8231C151.079 97.8231 154.447 99.2555 156.814 101.704C159.181 104.155 160.599 107.679 160.599 111.955H162.302ZM147.067 96.1205C142.608 96.1205 138.784 97.7112 136.075 100.522C133.368 103.33 131.832 107.298 131.832 111.955H133.535C133.535 107.677 134.94 104.153 137.301 101.703C139.659 99.2562 143.026 97.8231 147.067 97.8231V96.1205ZM131.832 111.955C131.832 116.612 133.369 120.567 136.076 123.362C138.786 126.159 142.611 127.735 147.067 127.735V126.032C143.024 126.032 139.657 124.611 137.299 122.177C134.94 119.742 133.535 116.233 133.535 111.955H131.832ZM147.067 127.735C151.497 127.735 155.321 126.158 158.036 123.363C160.75 120.569 162.302 116.614 162.302 111.955H160.599C160.599 116.23 159.182 119.74 156.815 122.177C154.45 124.612 151.082 126.032 147.067 126.032V127.735ZM142.198 111.955C142.198 109.561 142.733 107.801 143.582 106.661C144.409 105.55 145.582 104.96 147.067 104.96V103.258C145.065 103.258 143.378 104.085 142.216 105.644C141.077 107.174 140.495 109.336 140.495 111.955H142.198ZM147.067 104.96C148.552 104.96 149.725 105.55 150.552 106.661C151.401 107.801 151.937 109.561 151.937 111.955H153.639C153.639 109.336 153.057 107.174 151.918 105.644C150.756 104.085 149.069 103.258 147.067 103.258V104.96ZM151.937 111.955C151.937 114.348 151.401 116.109 150.552 117.249C149.725 118.359 148.552 118.949 147.067 118.949V120.652C149.069 120.652 150.756 119.825 151.918 118.266C153.057 116.736 153.639 114.574 153.639 111.955H151.937ZM147.067 118.949C145.582 118.949 144.409 118.359 143.582 117.249C142.733 116.109 142.198 114.348 142.198 111.955H140.495C140.495 114.574 141.077 116.736 142.216 118.266C143.378 119.825 145.065 120.652 147.067 120.652V118.949ZM191.646 97.5711H192.498V96.7198H191.646V97.5711ZM182.929 97.5711V96.7198H182.078V97.5711H182.929ZM174.157 97.5711H175.009V96.7198H174.157V97.5711ZM165.44 97.5711V96.7198H164.589V97.5711H165.44ZM182.929 123.451H183.78V121.192L182.29 122.889L182.929 123.451ZM182.929 126.284H182.078V127.135H182.929V126.284ZM191.646 126.284V127.135H192.498V126.284H191.646ZM191.646 96.7198H182.929V98.4224H191.646V96.7198ZM182.078 97.5711V114.189H183.78V97.5711H182.078ZM182.078 114.189C182.078 115.675 181.58 116.712 180.893 117.377C180.197 118.052 179.245 118.404 178.244 118.404V120.107C179.639 120.107 181.031 119.615 182.078 118.6C183.134 117.577 183.78 116.08 183.78 114.189H182.078ZM178.244 118.404C177.026 118.404 176.272 118.016 175.8 117.433C175.302 116.818 175.009 115.854 175.009 114.515H173.306C173.306 116.064 173.64 117.471 174.476 118.504C175.339 119.569 176.628 120.107 178.244 120.107V118.404ZM175.009 114.515V97.5711H173.306V114.515H175.009ZM174.157 96.7198H165.44V98.4224H174.157V96.7198ZM164.589 97.5711V116.586H166.291V97.5711H164.589ZM164.589 116.586C164.589 119.894 165.613 122.693 167.493 124.671C169.377 126.653 172.049 127.735 175.192 127.735V126.032C172.452 126.032 170.248 125.098 168.727 123.498C167.201 121.893 166.291 119.543 166.291 116.586H164.589ZM175.192 127.735C179.072 127.735 181.855 125.963 183.569 124.013L182.29 122.889C180.844 124.534 178.505 126.032 175.192 126.032V127.735ZM182.078 123.451V126.284H183.78V123.451H182.078ZM182.929 127.135H191.646V125.433H182.929V127.135ZM192.498 126.284V97.5711H190.795V126.284H192.498ZM197.913 113.644L197.064 113.708L197.124 114.495H197.913V113.644ZM204.668 113.644V114.495H205.457L205.517 113.708L204.668 113.644ZM206.684 87.1647L207.533 87.2294L207.603 86.3134H206.684V87.1647ZM195.897 87.1647V86.3134H194.978L195.048 87.2294L195.897 87.1647ZM196.278 126.284H195.427V127.135H196.278V126.284ZM206.303 126.284V127.135H207.154V126.284H206.303ZM206.303 116.749H207.154V115.898H206.303V116.749ZM196.278 116.749V115.898H195.427V116.749H196.278ZM197.913 114.495H204.668V112.792H197.913V114.495ZM205.517 113.708L207.533 87.2294L205.836 87.1001L203.82 113.579L205.517 113.708ZM206.684 86.3134H195.897V88.0161H206.684V86.3134ZM195.048 87.2294L197.064 113.708L198.761 113.579L196.745 87.1001L195.048 87.2294ZM196.278 127.135H206.303V125.433H196.278V127.135ZM207.154 126.284V116.749H205.452V126.284H207.154ZM206.303 115.898H196.278V117.601H206.303V115.898ZM195.427 116.749V126.284H197.129V116.749H195.427Z" fill="white"/>
    <g filter="url(#filter0_b_4389_70652)">
      <path d="M-14.375 86.0378H72.4583C83.4288 86.0378 92.3221 94.9311 92.3221 105.902C92.3221 116.872 83.4288 125.765 72.4583 125.765H-14.375V86.0378Z" fill="white" fill-opacity="0.72"/>
    </g>
    <g filter="url(#filter1_b_4389_70652)">
      <path d="M-14.375 36.0955H22.515C33.4855 36.0955 42.3788 44.9888 42.3788 55.9592C42.3788 66.9297 33.4855 75.823 22.515 75.823H-14.375V36.0955Z" fill="white" fill-opacity="0.72"/>
    </g>
  </g>
  <defs>
    <filter id="filter0_b_4389_70652" x="-59.778" y="40.6349" width="197.501" height="130.533" filterUnits="userSpaceOnUse" color-interpolation-filters="sRGB">
      <feFlood flood-opacity="0" result="BackgroundImageFix"/>
      <feGaussianBlur in="BackgroundImageFix" stdDeviation="22.7015"/>
      <feComposite in2="SourceAlpha" operator="in" result="effect1_backgroundBlur_4389_70652"/>
      <feBlend mode="normal" in="SourceGraphic" in2="effect1_backgroundBlur_4389_70652" result="shape"/>
    </filter>
    <filter id="filter1_b_4389_70652" x="-59.778" y="-9.3075" width="147.56" height="130.533" filterUnits="userSpaceOnUse" color-interpolation-filters="sRGB">
      <feFlood flood-opacity="0" result="BackgroundImageFix"/>
      <feGaussianBlur in="BackgroundImageFix" stdDeviation="22.7015"/>
      <feComposite in2="SourceAlpha" operator="in" result="effect1_backgroundBlur_4389_70652"/>
      <feBlend mode="normal" in="SourceGraphic" in2="effect1_backgroundBlur_4389_70652" result="shape"/>
    </filter>
    <radialGradient id="paint0_radial_4389_70652" cx="0" cy="0" r="1" gradientUnits="userSpaceOnUse" gradientTransform="translate(236.973 158.051) rotate(-126.858) scale(197.533 297.296)">
      <stop stop-color="#FD9C88"/>
      <stop offset="1" stop-color="#FD9C88" stop-opacity="0"/>
    </radialGradient>
    <radialGradient id="paint1_radial_4389_70652" cx="0" cy="0" r="1" gradientUnits="userSpaceOnUse" gradientTransform="rotate(53.1421) scale(197.533 297.296)">
      <stop stop-color="#6EE4E9"/>
      <stop offset="1" stop-color="#6EE4E9" stop-opacity="0"/>
    </radialGradient>
    <radialGradient id="paint2_radial_4389_70652" cx="0" cy="0" r="1" gradientUnits="userSpaceOnUse" gradientTransform="translate(3.97518e-06 158.051) scale(118.487 179.53)">
      <stop stop-color="#FFE871"/>
      <stop offset="1" stop-color="#FFE871" stop-opacity="0"/>
    </radialGradient>
    <clipPath id="clip0_4389_70652">
      <rect width="236.973" height="158.051" fill="white" transform="translate(0 0.998291)"/>
    </clipPath>
  </defs>
</svg>
